<svg xmlns="http://www.w3.org/2000/svg" width="25.94" height="30.263" viewBox="0 0 25.94 30.263">
  <path id="Path_20" data-name="Path 20" d="M26.058,8.206H23.175a7.206,7.206,0,0,0-14.411,0H5.882a2.878,2.878,0,0,0-2.868,2.882L3,28.381a2.891,2.891,0,0,0,2.882,2.882H26.058a2.891,2.891,0,0,0,2.882-2.882V11.088A2.891,2.891,0,0,0,26.058,8.206ZM15.97,3.882a4.318,4.318,0,0,1,4.323,4.323H11.647A4.318,4.318,0,0,1,15.97,3.882Zm0,14.411a7.208,7.208,0,0,1-7.206-7.206h2.882a4.323,4.323,0,0,0,8.647,0h2.882A7.208,7.208,0,0,1,15.97,18.293Z" transform="translate(-3 -1)" fill="#5c5d5b"/>
</svg>
